<svg width="442" height="425" viewBox="0 0 442 425" fill="none" xmlns="http://www.w3.org/2000/svg">
<path fill-rule="evenodd" clip-rule="evenodd" d="M192.592 0.50222C137.331 6.04522 93.8474 25.4012 59.5054 59.7442C29.5994 89.6492 10.2764 128.403 3.14438 172.778C-8.99462 248.305 14.2114 317.773 69.3334 370.917C82.5124 383.624 89.5634 388.831 93.5894 388.831C96.3304 388.831 100.262 385.477 100.624 382.831C101.258 378.197 100.325 376.705 93.3424 371.19C72.3994 354.647 49.3554 326.115 36.7164 301.076C28.0874 283.983 20.9444 261.221 17.9664 241.328C16.0074 228.244 15.7534 197.553 17.4974 184.831C24.1764 136.13 41.8184 99.2292 72.7554 69.2542C88.3784 54.1162 101.296 45.1542 120.874 35.8682C147.987 23.0082 173.831 17.0902 207.108 16.1202C244.487 15.0302 273.834 21.2002 305.127 36.7252C328.711 48.4262 346.483 61.5932 365.335 81.3292C377.358 93.9162 379.187 94.8042 384.203 90.4892C389.938 85.5562 387.459 80.6102 371.062 64.2762C335.273 28.6242 289.937 6.90722 238.618 0.834221C230.788 -0.0927795 200.686 -0.30978 192.592 0.50222ZM379.092 111.759C361.492 116.551 346.103 121.007 344.893 121.66C341.779 123.341 339.592 126.808 339.592 130.064C339.592 132.96 354.511 190.117 357.213 197.57C358.999 202.5 362.746 205.831 366.503 205.831C371.039 205.831 435.89 187.998 438.562 186.016C443.791 182.137 443.579 180.159 434.164 144.828C429.4 126.955 425.012 111.078 424.412 109.547C422.808 105.454 418.93 102.813 414.707 102.938C412.719 102.997 396.692 106.966 379.092 111.759ZM126.092 118.992C120.545 122.042 120.638 121.321 120.614 161.131C120.59 201.368 120.726 202.401 126.339 204.726C128.388 205.575 139.421 205.824 165.865 205.617L202.549 205.331L205.32 202.559L208.092 199.788L208.379 163.605C208.684 125.026 208.525 123.497 203.822 119.797C201.438 117.922 199.623 117.832 164.707 117.861C140.014 117.882 127.441 118.25 126.092 118.992ZM235.355 119.396C229.743 122.441 229.592 123.547 229.594 161.531C229.595 192.664 229.779 196.698 231.344 199.817C234.328 205.768 234.554 205.8 273.892 205.816C312 205.832 314.042 205.596 316.562 200.886C318.103 198.008 317.951 126.714 316.397 123.303C313.975 117.986 312.737 117.828 273.892 117.871C244.178 117.904 237.627 118.164 235.355 119.396ZM408.114 122.276C410.304 123.191 412.124 124.932 413.078 127.026C415.15 131.572 423.642 163.529 423.784 167.315C423.935 171.338 422.18 174.478 418.812 176.209C414.601 178.373 380.51 187.195 376.71 187.103C370.721 186.959 369.167 184.213 363.535 163.831C360.724 153.656 358.349 143.429 358.258 141.104C357.978 133.964 360.092 132.715 383.092 126.435C394.092 123.432 403.444 120.942 403.874 120.903C404.304 120.863 406.212 121.481 408.114 122.276ZM127.905 227.904C126.152 228.427 123.79 230.036 122.655 231.478C120.655 234.021 120.592 235.236 120.592 271.331C120.592 307.371 120.658 308.645 122.646 311.172C126.164 315.645 129.521 315.986 166.592 315.647C197.584 315.363 201.356 315.152 203.688 313.567C208.434 310.341 208.592 308.996 208.592 271.685C208.592 242.603 208.337 236.095 207.092 233.473C204.161 227.295 204.511 227.349 166.092 227.142C146.228 227.034 129.714 227.364 127.905 227.904ZM238.037 227.899C236.357 228.388 233.882 229.958 232.537 231.388L230.092 233.99L229.806 269.933C229.486 310.087 229.644 311.204 236.07 314.254C240.717 316.459 305.774 316.618 310.993 314.437C317.714 311.629 317.592 312.427 317.592 271.243C317.592 235.34 317.524 234.014 315.547 231.5C314.421 230.07 311.834 228.437 309.797 227.871C305.241 226.606 242.402 226.631 238.037 227.899ZM346.905 227.904C345.152 228.427 342.79 230.036 341.655 231.478C339.657 234.018 339.592 235.245 339.592 270.516C339.592 301.615 339.821 307.373 341.158 309.959C344.042 315.536 346.138 315.832 382.81 315.825C403.085 315.822 417.578 315.407 419.894 314.764C422.449 314.055 424.334 312.662 425.64 310.52C427.47 307.519 427.585 305.225 427.588 271.531C427.592 233.027 427.407 231.51 422.332 228.611C419.571 227.033 351.943 226.4 346.905 227.904ZM126.98 337.811C125.819 338.28 123.906 339.888 122.73 341.383C120.635 344.046 120.592 344.831 120.592 380.516C120.592 420.015 120.744 421.212 126.064 423.636C127.944 424.493 139.003 424.831 165.123 424.831H201.56L204.826 421.914L208.092 418.997L208.36 382.664C208.604 349.579 208.469 346.019 206.86 342.845C203.838 336.886 203.62 336.856 164.592 336.909C145.067 336.936 128.142 337.342 126.98 337.811ZM234.973 338.741C233.257 339.787 231.345 342.102 230.723 343.886C228.943 348.992 229.173 413.893 230.986 418.232C233.789 424.941 233.084 424.831 273.364 424.831C312.035 424.831 314.039 424.602 316.562 419.886C318.103 417.008 317.951 345.714 316.397 342.303C313.977 336.992 312.726 336.831 273.892 336.835C240.47 336.838 237.885 336.965 234.973 338.741ZM345.98 337.811C344.819 338.28 342.906 339.888 341.73 341.383C339.635 344.046 339.592 344.831 339.592 380.516C339.592 420.015 339.744 421.212 345.064 423.636C346.944 424.493 358.029 424.831 384.239 424.831H420.792L424.192 421.431L427.592 418.031L427.588 381.681C427.585 347.115 427.487 345.17 425.588 342.056C424.49 340.255 422.437 338.342 421.026 337.806C417.857 336.601 348.963 336.606 345.98 337.811Z" fill="#001F41"/>
</svg>
