<svg width="512" height="501" viewBox="0 0 512 501" fill="none" xmlns="http://www.w3.org/2000/svg">
<path fill-rule="evenodd" clip-rule="evenodd" d="M227.592 38.5022C172.331 44.0452 128.847 63.4012 94.5054 97.7442C64.5994 127.649 45.2764 166.403 38.1444 210.778C26.0054 286.305 49.2114 355.773 104.333 408.917C117.512 421.624 124.563 426.831 128.589 426.831C131.33 426.831 135.262 423.477 135.624 420.831C136.258 416.197 135.325 414.705 128.342 409.19C107.399 392.647 84.3554 364.115 71.7164 339.076C63.0874 321.983 55.9444 299.221 52.9664 279.328C51.0074 266.244 50.7534 235.553 52.4974 222.831C59.1764 174.13 76.8184 137.229 107.755 107.254C123.378 92.1162 136.296 83.1542 155.874 73.8682C182.987 61.0082 208.831 55.0902 242.108 54.1202C279.487 53.0302 308.834 59.2002 340.127 74.7252C363.711 86.4262 381.483 99.5932 400.335 119.329C412.358 131.916 414.187 132.804 419.203 128.489C424.938 123.556 422.459 118.61 406.062 102.276C370.273 66.6242 324.937 44.9072 273.618 38.8342C265.788 37.9072 235.686 37.6902 227.592 38.5022ZM414.092 149.759C396.492 154.551 381.103 159.007 379.893 159.66C376.779 161.341 374.592 164.808 374.592 168.064C374.592 170.96 389.511 228.117 392.213 235.57C393.999 240.5 397.746 243.831 401.503 243.831C406.039 243.831 470.89 225.998 473.562 224.016C478.791 220.137 478.579 218.159 469.164 182.828C464.4 164.955 460.012 149.078 459.412 147.547C457.808 143.454 453.93 140.813 449.707 140.938C447.719 140.997 431.692 144.966 414.092 149.759ZM161.092 156.992C155.545 160.042 155.638 159.321 155.614 199.131C155.59 239.368 155.726 240.401 161.339 242.726C163.388 243.575 174.421 243.824 200.865 243.617L237.549 243.331L240.32 240.559L243.092 237.788L243.379 201.605C243.684 163.026 243.525 161.497 238.822 157.797C236.438 155.922 234.623 155.832 199.707 155.861C175.014 155.882 162.441 156.25 161.092 156.992ZM270.355 157.396C264.743 160.441 264.592 161.547 264.594 199.531C264.595 230.664 264.779 234.698 266.344 237.817C269.328 243.768 269.554 243.8 308.892 243.816C347 243.832 349.042 243.596 351.562 238.886C353.103 236.008 352.951 164.714 351.397 161.303C348.975 155.986 347.737 155.828 308.892 155.871C279.178 155.904 272.627 156.164 270.355 157.396ZM443.114 160.276C445.304 161.191 447.124 162.932 448.078 165.026C450.15 169.572 458.642 201.529 458.784 205.315C458.935 209.338 457.18 212.478 453.812 214.209C449.601 216.373 415.51 225.195 411.71 225.103C405.721 224.959 404.167 222.213 398.535 201.831C395.724 191.656 393.349 181.429 393.258 179.104C392.978 171.964 395.092 170.715 418.092 164.435C429.092 161.432 438.444 158.942 438.874 158.903C439.304 158.863 441.212 159.481 443.114 160.276ZM162.905 265.904C161.152 266.427 158.79 268.036 157.655 269.478C155.655 272.021 155.592 273.236 155.592 309.331C155.592 345.371 155.658 346.645 157.646 349.172C161.164 353.645 164.521 353.986 201.592 353.647C232.584 353.363 236.356 353.152 238.688 351.567C243.434 348.341 243.592 346.996 243.592 309.685C243.592 280.603 243.337 274.095 242.092 271.473C239.161 265.295 239.511 265.349 201.092 265.142C181.228 265.034 164.714 265.364 162.905 265.904ZM273.037 265.899C271.357 266.388 268.882 267.958 267.537 269.388L265.092 271.99L264.806 307.933C264.486 348.087 264.644 349.204 271.07 352.254C275.717 354.459 340.774 354.618 345.993 352.437C352.714 349.629 352.592 350.427 352.592 309.243C352.592 273.34 352.524 272.014 350.547 269.5C349.421 268.07 346.834 266.437 344.797 265.871C340.241 264.606 277.402 264.631 273.037 265.899ZM381.905 265.904C380.152 266.427 377.79 268.036 376.655 269.478C374.657 272.018 374.592 273.245 374.592 308.516C374.592 339.615 374.821 345.373 376.158 347.959C379.042 353.536 381.138 353.832 417.81 353.825C438.085 353.822 452.578 353.407 454.894 352.764C457.449 352.055 459.334 350.662 460.64 348.52C462.47 345.519 462.585 343.225 462.588 309.531C462.592 271.027 462.407 269.51 457.332 266.611C454.571 265.033 386.943 264.4 381.905 265.904ZM161.98 375.811C160.819 376.28 158.906 377.888 157.73 379.383C155.635 382.046 155.592 382.831 155.592 418.516C155.592 458.015 155.744 459.212 161.064 461.636C162.944 462.493 174.003 462.831 200.123 462.831H236.56L239.826 459.914L243.092 456.997L243.36 420.664C243.604 387.579 243.469 384.019 241.86 380.845C238.838 374.886 238.62 374.856 199.592 374.909C180.067 374.936 163.142 375.342 161.98 375.811ZM269.973 376.741C268.257 377.787 266.345 380.102 265.723 381.886C263.943 386.992 264.173 451.893 265.986 456.232C268.789 462.941 268.084 462.831 308.364 462.831C347.035 462.831 349.039 462.602 351.562 457.886C353.103 455.008 352.951 383.714 351.397 380.303C348.977 374.992 347.726 374.831 308.892 374.835C275.47 374.838 272.885 374.965 269.973 376.741ZM380.98 375.811C379.819 376.28 377.906 377.888 376.73 379.383C374.635 382.046 374.592 382.831 374.592 418.516C374.592 458.015 374.744 459.212 380.064 461.636C381.944 462.493 393.029 462.831 419.239 462.831H455.792L459.192 459.431L462.592 456.031L462.588 419.681C462.585 385.115 462.487 383.17 460.588 380.056C459.49 378.255 457.437 376.342 456.026 375.806C452.857 374.601 383.963 374.606 380.98 375.811Z" fill="white"/>
</svg>
